<svg viewBox="0 0 960 540" width="960" height="540" xmlns="http://www.w3.org/2000/svg" xmlns:xlink="http://www.w3.org/1999/xlink" version="1.1">
  <g transform="translate(960, 0)" fill-opacity="0.3">
    <path d="M0 513C-86 494.1 -172.1 475.1 -251 434.7C-329.9 394.4 -401.8 332.5 -444.3 256.5C-486.8 180.5 -499.9 90.2 -513 0L0 0Z" fill="#162341"></path>
    <path d="M0 384.8C-64.5 370.5 -129 356.3 -188.2 326.1C-247.5 295.8 -301.3 249.4 -333.2 192.4C-365.1 135.4 -374.9 67.7 -384.7 0L0 0Z" fill="#733872"></path>
    <path d="M0 256.5C-43 247 -86 237.6 -125.5 217.4C-165 197.2 -200.9 166.3 -222.1 128.3C-243.4 90.2 -249.9 45.1 -256.5 0L0 0Z" fill="#da456d"></path>
    <path d="M0 128.3C-21.5 123.5 -43 118.8 -62.7 108.7C-82.5 98.6 -100.4 83.1 -111.1 64.1C-121.7 45.1 -125 22.6 -128.2 0L0 0Z" fill="#ff5e57"></path>
  </g>
  <g transform="translate(0, 540)" fill-opacity="0.3">
    <path d="M0 -513C91.9 -500.8 183.7 -488.6 256.5 -444.3C329.3 -399.9 383 -323.4 422.6 -244C462.2 -164.6 487.6 -82.3 513 0L0 0Z" fill="#162341"></path>
    <path d="M0 -384.7C68.9 -375.6 137.8 -366.5 192.4 -333.2C247 -299.9 287.3 -242.6 317 -183C346.6 -123.4 365.7 -61.7 384.8 0L0 0Z" fill="#733872"></path>
    <path d="M0 -256.5C45.9 -250.4 91.9 -244.3 128.2 -222.1C164.6 -200 191.5 -161.7 211.3 -122C231.1 -82.3 243.8 -41.1 256.5 0L0 0Z" fill="#da456d"></path>
    <path d="M0 -128.2C23 -125.2 45.9 -122.2 64.1 -111.1C82.3 -100 95.8 -80.9 105.7 -61C115.5 -41.1 121.9 -20.6 128.3 0L0 0Z" fill="#ff5e57"></path>
  </g>
</svg>