<svg viewBox="0 0 540 960" width="540" height="960" xmlns="http://www.w3.org/2000/svg" xmlns:xlink="http://www.w3.org/1999/xlink" version="1.1">
  <g transform="translate(540, 0)" fill-opacity="0.3">
    <path d="M0 513C-90.2 499.9 -180.5 486.8 -256.5 444.3C-332.5 401.8 -394.4 329.9 -434.7 251C-475.1 172.1 -494.1 86 -513 0L0 0Z" fill="#162341"></path>
    <path d="M0 384.8C-67.7 374.9 -135.4 365.1 -192.4 333.2C-249.4 301.3 -295.8 247.5 -326.1 188.3C-356.3 129 -370.5 64.5 -384.7 0L0 0Z" fill="#733872"></path>
    <path d="M0 256.5C-45.1 249.9 -90.2 243.4 -128.2 222.1C-166.3 200.9 -197.2 165 -217.4 125.5C-237.6 86 -247 43 -256.5 0L0 0Z" fill="#da456d"></path>
    <path d="M0 128.3C-22.6 125 -45.1 121.7 -64.1 111.1C-83.1 100.4 -98.6 82.5 -108.7 62.8C-118.8 43 -123.5 21.5 -128.2 0L0 0Z" fill="#ff5e57"></path>
  </g>
  <g transform="translate(0, 960)" fill-opacity="0.3">
    <path d="M0 -513C91.3 -500.5 182.5 -488 256.5 -444.3C330.5 -400.6 387.1 -325.7 427 -246.5C466.8 -167.3 489.9 -83.6 513 0L0 0Z" fill="#162341"></path>
    <path d="M0 -384.7C68.5 -375.4 136.9 -366 192.4 -333.2C247.8 -300.4 290.3 -244.3 320.2 -184.9C350.1 -125.4 367.4 -62.7 384.8 0L0 0Z" fill="#733872"></path>
    <path d="M0 -256.5C45.6 -250.2 91.3 -244 128.2 -222.1C165.2 -200.3 193.5 -162.9 213.5 -123.3C233.4 -83.6 245 -41.8 256.5 0L0 0Z" fill="#da456d"></path>
    <path d="M0 -128.2C22.8 -125.1 45.6 -122 64.1 -111.1C82.6 -100.1 96.8 -81.4 106.7 -61.6C116.7 -41.8 122.5 -20.9 128.3 0L0 0Z" fill="#ff5e57"></path>
  </g>
</svg>