<svg viewBox="0 0 900 600" width="900" height="600" xmlns="http://www.w3.org/2000/svg" xmlns:xlink="http://www.w3.org/1999/xlink" version="1.1">
  <g fill-opacity="0.1">
    <path d="M0 141L25 138.2C50 135.3 100 129.7 150 115.2C200 100.7 250 77.3 300 81.7C350 86 400 118 450 123C500 128 550 106 600 87.7C650 69.3 700 54.7 750 55.2C800 55.7 850 71.3 875 79.2L900 87L900 601L875 601C850 601 800 601 750 601C700 601 650 601 600 601C550 601 500 601 450 601C400 601 350 601 300 601C250 601 200 601 150 601C100 601 50 601 25 601L0 601Z" fill="#68ac6a"></path>
    <path d="M0 104L25 101C50 98 100 92 150 97.5C200 103 250 120 300 120.7C350 121.3 400 105.7 450 105.2C500 104.7 550 119.3 600 121.8C650 124.3 700 114.7 750 110.7C800 106.7 850 108.3 875 109.2L900 110L900 601L875 601C850 601 800 601 750 601C700 601 650 601 600 601C550 601 500 601 450 601C400 601 350 601 300 601C250 601 200 601 150 601C100 601 50 601 25 601L0 601Z" fill="#60a762"></path>
    <path d="M0 231L25 222.2C50 213.3 100 195.7 150 186.7C200 177.7 250 177.3 300 175.8C350 174.3 400 171.7 450 176.5C500 181.3 550 193.7 600 189.2C650 184.7 700 163.3 750 158.2C800 153 850 164 875 169.5L900 175L900 601L875 601C850 601 800 601 750 601C700 601 650 601 600 601C550 601 500 601 450 601C400 601 350 601 300 601C250 601 200 601 150 601C100 601 50 601 25 601L0 601Z" fill="#57a159"></path>
    <path d="M0 234L25 233.2C50 232.3 100 230.7 150 232.2C200 233.7 250 238.3 300 230.7C350 223 400 203 450 199C500 195 550 207 600 210.8C650 214.7 700 210.3 750 203.2C800 196 850 186 875 181L900 176L900 601L875 601C850 601 800 601 750 601C700 601 650 601 600 601C550 601 500 601 450 601C400 601 350 601 300 601C250 601 200 601 150 601C100 601 50 601 25 601L0 601Z" fill="#4f9c51"></path>
    <path d="M0 258L25 259.5C50 261 100 264 150 260C200 256 250 245 300 243.3C350 241.7 400 249.3 450 246.5C500 243.7 550 230.3 600 226.5C650 222.7 700 228.3 750 237.7C800 247 850 260 875 266.5L900 273L900 601L875 601C850 601 800 601 750 601C700 601 650 601 600 601C550 601 500 601 450 601C400 601 350 601 300 601C250 601 200 601 150 601C100 601 50 601 25 601L0 601Z" fill="#469649"></path>
    <path d="M0 278L25 288.5C50 299 100 320 150 329.2C200 338.3 250 335.7 300 329.2C350 322.7 400 312.3 450 301.8C500 291.3 550 280.7 600 281.3C650 282 700 294 750 296.3C800 298.7 850 291.3 875 287.7L900 284L900 601L875 601C850 601 800 601 750 601C700 601 650 601 600 601C550 601 500 601 450 601C400 601 350 601 300 601C250 601 200 601 150 601C100 601 50 601 25 601L0 601Z" fill="#3d9140"></path>
    <path d="M0 353L25 349.5C50 346 100 339 150 331C200 323 250 314 300 311C350 308 400 311 450 311.5C500 312 550 310 600 312.2C650 314.3 700 320.7 750 329.8C800 339 850 351 875 357L900 363L900 601L875 601C850 601 800 601 750 601C700 601 650 601 600 601C550 601 500 601 450 601C400 601 350 601 300 601C250 601 200 601 150 601C100 601 50 601 25 601L0 601Z" fill="#368a3b"></path>
    <path d="M0 367L25 374.7C50 382.3 100 397.7 150 404C200 410.3 250 407.7 300 398.3C350 389 400 373 450 364.2C500 355.3 550 353.7 600 353C650 352.3 700 352.7 750 363C800 373.3 850 393.7 875 403.8L900 414L900 601L875 601C850 601 800 601 750 601C700 601 650 601 600 601C550 601 500 601 450 601C400 601 350 601 300 601C250 601 200 601 150 601C100 601 50 601 25 601L0 601Z" fill="#338338"></path>
    <path d="M0 393L25 400.5C50 408 100 423 150 427.5C200 432 250 426 300 426.2C350 426.3 400 432.7 450 437.3C500 442 550 445 600 442.8C650 440.7 700 433.3 750 425.7C800 418 850 410 875 406L900 402L900 601L875 601C850 601 800 601 750 601C700 601 650 601 600 601C550 601 500 601 450 601C400 601 350 601 300 601C250 601 200 601 150 601C100 601 50 601 25 601L0 601Z" fill="#307c35"></path>
    <path d="M0 490L25 487.3C50 484.7 100 479.3 150 473C200 466.7 250 459.3 300 457.8C350 456.3 400 460.7 450 462.3C500 464 550 463 600 463.8C650 464.7 700 467.3 750 469C800 470.7 850 471.3 875 471.7L900 472L900 601L875 601C850 601 800 601 750 601C700 601 650 601 600 601C550 601 500 601 450 601C400 601 350 601 300 601C250 601 200 601 150 601C100 601 50 601 25 601L0 601Z" fill="#2e7632"></path>
    <path d="M0 517L25 515.8C50 514.7 100 512.3 150 513.7C200 515 250 520 300 523C350 526 400 527 450 524.7C500 522.3 550 516.7 600 514.7C650 512.7 700 514.3 750 512.3C800 510.3 850 504.7 875 501.8L900 499L900 601L875 601C850 601 800 601 750 601C700 601 650 601 600 601C550 601 500 601 450 601C400 601 350 601 300 601C250 601 200 601 150 601C100 601 50 601 25 601L0 601Z" fill="#2b6f30"></path>
    <path d="M0 571L25 570.2C50 569.3 100 567.7 150 569.2C200 570.7 250 575.3 300 571.8C350 568.3 400 556.7 450 555.7C500 554.7 550 564.3 600 562C650 559.7 700 545.3 750 540.7C800 536 850 541 875 543.5L900 546L900 601L875 601C850 601 800 601 750 601C700 601 650 601 600 601C550 601 500 601 450 601C400 601 350 601 300 601C250 601 200 601 150 601C100 601 50 601 25 601L0 601Z" fill="#28682d"></path>
  </g>
</svg>
